<?xml version="1.0" encoding="UTF-8"?><svg id="Layer_2" xmlns="http://www.w3.org/2000/svg" viewBox="0 0 261.79 61.94"><g id="Layer_1-2"><g id="Negative_Black"><path id="Path_1046" d="M28.62,13.82c-10.79.01-19.53,8.78-19.52,19.57,0,1.86.27,3.72.8,5.51v-.71c0-7.66,6.21-13.87,13.87-13.87,7.66,0,13.87,6.21,13.87,13.87,0,7.66-6.21,13.87-13.87,13.87h-.74c10.33,3.1,21.21-2.77,24.31-13.1,3.1-10.33-2.77-21.21-13.1-24.31-1.82-.54-3.7-.82-5.6-.82l-.02-.02Z"/><path id="Path_1047" d="M30.97,0C13.87,0,0,13.87,0,30.97s13.87,30.97,30.97,30.97,30.97-13.87,30.97-30.97S48.07,0,30.97,0ZM28.6,55.33c-5.82.02-11.4-2.29-15.51-6.4l-.08-.08c-8.55-8.61-8.5-22.52.11-31.07,8.61-8.55,22.52-8.5,31.07.11,8.55,8.61,8.5,22.52-.11,31.07-4.12,4.09-9.68,6.38-15.48,6.38h0Z"/></g><path d="M73.97,23.6h7.9l5.99,16.08h.1l5.56-16.08h7.36l-9.36,23.68h-7.75l-9.8-23.68Z"/><path d="M122.56,43.19c-1.17,1.49-2.65,2.65-4.43,3.46-1.79.81-3.64,1.22-5.56,1.22s-3.53-.29-5.14-.88c-1.61-.58-3.01-1.42-4.19-2.51-1.19-1.09-2.12-2.4-2.8-3.92-.68-1.53-1.02-3.23-1.02-5.12s.34-3.59,1.02-5.12c.68-1.53,1.62-2.83,2.8-3.92,1.19-1.09,2.58-1.92,4.19-2.51,1.61-.58,3.32-.88,5.14-.88,1.69,0,3.22.29,4.61.88,1.38.58,2.55,1.42,3.51,2.51.96,1.09,1.7,2.4,2.22,3.92.52,1.53.78,3.23.78,5.12v2.29h-16.96c.29,1.4.93,2.51,1.9,3.34s2.18,1.24,3.61,1.24c1.2,0,2.22-.27,3.05-.8.83-.54,1.55-1.23,2.17-2.07l5.12,3.75ZM116.37,32.76c.03-1.23-.37-2.29-1.22-3.17-.85-.88-1.93-1.32-3.27-1.32-.81,0-1.53.13-2.14.39-.62.26-1.15.59-1.58,1-.44.41-.78.88-1.02,1.41s-.38,1.1-.41,1.68h9.65Z"/><path d="M125.68,23.6h7.31v3.8h.1c.78-1.46,1.71-2.56,2.78-3.29,1.07-.73,2.42-1.1,4.05-1.1.42,0,.84.02,1.27.05.42.03.81.1,1.17.19v6.68c-.52-.16-1.03-.28-1.54-.37-.5-.08-1.03-.12-1.58-.12-1.4,0-2.5.19-3.31.58-.81.39-1.44.93-1.88,1.63-.44.7-.72,1.54-.85,2.51-.13.97-.19,2.05-.19,3.22v9.89h-7.31v-23.68Z"/><path d="M143.57,16.14c0-1.17.41-2.17,1.24-3s1.83-1.24,3-1.24,2.17.41,3,1.24c.83.83,1.24,1.83,1.24,3s-.41,2.17-1.24,3c-.83.83-1.83,1.24-3,1.24s-2.17-.41-3-1.24-1.24-1.83-1.24-3ZM144.15,23.6h7.31v23.68h-7.31v-23.68Z"/><path d="M158.28,29.45h-4.82v-5.85h4.82v-4.19c0-1.3.11-2.53.34-3.68.23-1.15.67-2.17,1.32-3.05.65-.88,1.58-1.57,2.8-2.07,1.22-.5,2.82-.76,4.8-.76.75,0,1.48.03,2.19.1.71.07,1.41.18,2.1.34l-.34,6.19c-.42-.16-.81-.28-1.17-.37-.36-.08-.76-.12-1.22-.12-1.17,0-2.05.25-2.63.76-.58.5-.88,1.54-.88,3.09v3.75h5.41v5.85h-5.41v17.84h-7.31v-17.84Z"/><path d="M184.5,51.13c-.49,1.27-.96,2.39-1.41,3.36-.46.97-1.03,1.79-1.73,2.46-.7.67-1.58,1.17-2.66,1.51-1.07.34-2.49.51-4.24.51-1.88,0-3.7-.29-5.46-.88l.97-5.99c1.1.49,2.24.73,3.41.73.81,0,1.48-.09,2-.27.52-.18.95-.44,1.29-.78.34-.34.63-.76.85-1.24.23-.49.47-1.06.73-1.71l.54-1.36-10.38-23.88h7.89l6.09,15.64h.1l5.21-15.64h7.5l-10.72,27.53Z"/><path d="M196.49,23.6h7.02v3.22h.1c.23-.45.55-.91.97-1.36.42-.45.93-.86,1.51-1.22.58-.36,1.25-.65,2-.88.75-.23,1.56-.34,2.44-.34,1.66,0,3.13.34,4.41,1.02,1.28.68,2.25,1.75,2.9,3.22.84-1.53,1.87-2.61,3.07-3.27,1.2-.65,2.68-.97,4.44-.97,1.59,0,2.93.27,4.02.8,1.09.54,1.95,1.27,2.58,2.19.63.93,1.09,2.01,1.36,3.27.28,1.25.41,2.59.41,4.02v13.99h-7.31v-13.79c0-1.1-.24-2.05-.71-2.85-.47-.8-1.31-1.19-2.51-1.19-.84,0-1.55.14-2.12.41-.57.28-1.02.66-1.36,1.15-.34.49-.59,1.06-.73,1.71-.15.65-.22,1.33-.22,2.05v12.52h-7.31v-12.52c0-.42-.02-.94-.05-1.56-.03-.62-.15-1.2-.34-1.75-.19-.55-.51-1.02-.95-1.41-.44-.39-1.08-.58-1.92-.58-.94,0-1.71.17-2.29.51-.58.34-1.03.8-1.34,1.36-.31.57-.51,1.21-.61,1.92-.1.72-.15,1.46-.15,2.24v11.79h-7.31v-23.68Z"/><path d="M251.07,51.13c-.49,1.27-.96,2.39-1.41,3.36-.46.97-1.03,1.79-1.73,2.46-.7.67-1.58,1.17-2.66,1.51-1.07.34-2.49.51-4.24.51-1.89,0-3.7-.29-5.46-.88l.98-5.99c1.1.49,2.24.73,3.41.73.81,0,1.48-.09,2-.27.52-.18.95-.44,1.29-.78.34-.34.63-.76.85-1.24.23-.49.47-1.06.73-1.71l.54-1.36-10.38-23.88h7.89l6.09,15.64h.1l5.21-15.64h7.5l-10.72,27.53Z"/></g></svg>