<svg width="236" height="28" viewBox="0 0 236 28" fill="none" xmlns="http://www.w3.org/2000/svg">
<path opacity="0.6" d="M15.9115 20.547C16.4671 19.5873 16.4923 18.3499 15.8357 17.3398L13.2852 13.4003L17.1489 7.46582C16.5428 8.45069 16.5176 9.71335 17.1741 10.7487L19.7247 14.6882L15.9115 20.5722V20.547Z" fill="white"/>
<path opacity="0.6" d="M28.8392 20.5225C29.3948 19.5629 29.3948 18.3255 28.7635 17.3406L26.2129 13.4012L30.1019 7.44141C29.8999 7.74444 29.7736 8.12324 29.6978 8.52729C29.6726 8.70406 29.6473 8.88084 29.6473 9.05761C29.6473 10.6991 30.9857 12.088 32.7029 12.088C33.7636 12.088 34.6979 11.5324 35.2283 10.7243L28.8645 20.5225H28.8392Z" fill="white"/>
<path d="M35.6817 9.48716C35.6817 9.48716 35.6817 9.63868 35.6312 9.68919C35.606 9.89121 35.5302 10.068 35.4544 10.2448C35.4292 10.3205 35.3787 10.4215 35.3282 10.4973C35.2777 10.573 35.2272 10.6741 35.1766 10.7498C34.6463 11.5579 33.712 12.1135 32.6513 12.1135C30.9341 12.1135 29.5957 10.7246 29.5957 9.08311C29.5957 8.90634 29.5957 8.72957 29.6462 8.5528C29.722 8.12349 29.8735 7.76995 30.0503 7.46691C30.0503 7.44166 30.0755 7.4164 30.1008 7.39115C30.1513 7.29014 30.227 7.21438 30.3028 7.13862C30.6311 6.73457 31.0604 6.43153 31.5402 6.28001C31.6665 6.22951 31.7675 6.20425 31.8937 6.15375C32.02 6.12849 32.1463 6.10324 32.2473 6.07799C32.2473 6.07799 32.2473 6.07799 32.2725 6.07799C32.3735 6.07799 32.4746 6.05273 32.6008 6.05273H32.6766C32.6766 6.05273 32.8281 6.05273 32.9039 6.05273H33.0806C34.2928 6.22951 35.4039 7.03761 35.6565 8.5528C35.707 8.88109 35.7322 9.20938 35.6565 9.53767L35.6817 9.48716ZM33.5604 9.05786L34.0655 8.5528C34.318 8.30026 34.318 7.92147 34.0655 7.66894C33.9392 7.54267 33.7877 7.49216 33.611 7.49216C33.4342 7.49216 33.2827 7.56792 33.1564 7.66894L32.6513 8.174L32.1463 7.66894C31.8937 7.4164 31.5149 7.4164 31.2624 7.66894C31.1361 7.7952 31.0856 7.94672 31.0856 8.12349C31.0856 8.30026 31.1614 8.45178 31.2624 8.57805L31.7675 9.08311L31.2624 9.58818C31.0099 9.84071 31.0099 10.2195 31.2624 10.472C31.5149 10.7246 31.919 10.7246 32.1463 10.472L32.6513 9.96697L33.1564 10.472C33.4089 10.7246 33.7877 10.7246 34.0403 10.472C34.2928 10.2195 34.2928 9.84071 34.0403 9.58818L33.5352 9.08311L33.5604 9.05786Z" fill="white"/>
<path d="M15.9099 20.5476C15.6826 20.9517 15.3544 21.3052 14.925 21.5578C14.4452 21.8608 13.9149 22.0376 13.3846 22.0376C13.3846 22.0376 13.3594 22.0376 13.3341 22.0376C13.3341 22.0376 13.3088 22.0376 13.2836 22.0376C13.2583 22.0376 13.2078 22.0376 13.1826 22.0376C13.1826 22.0376 13.1573 22.0376 13.1321 22.0376C13.1321 22.0376 13.1068 22.0376 13.0816 22.0376C12.1219 21.9871 11.2128 21.5072 10.6573 20.6486L10.5815 20.5224L4.19246 10.6989C3.28335 9.28472 3.6874 7.39074 5.10157 6.48163C5.60664 6.15334 6.18746 5.97656 6.76828 5.97656C7.77841 5.97656 8.73803 6.45637 9.3441 7.36549L13.2331 13.3505L15.7837 17.29C16.4402 18.3001 16.415 19.5375 15.8594 20.4971L15.9099 20.5476Z" fill="white"/>
<path d="M28.8365 20.5228C28.6093 20.9268 28.281 21.2804 27.8517 21.5582C27.8264 21.5582 27.7759 21.6087 27.7506 21.6339C27.7001 21.6592 27.6496 21.6844 27.5739 21.7349C27.2961 21.8865 26.9931 21.9875 26.69 22.038C26.69 22.038 26.6648 22.038 26.6395 22.038C26.6395 22.038 26.6143 22.038 26.589 22.038C26.5638 22.038 26.5132 22.038 26.488 22.038C25.9072 22.0885 25.3011 21.9875 24.7708 21.7097C24.7203 21.7097 24.695 21.6592 24.6445 21.6339C24.6445 21.6339 24.6193 21.6339 24.594 21.6087C24.594 21.6087 24.5688 21.6087 24.5435 21.5834C24.5435 21.5834 24.5182 21.5834 24.493 21.5582C24.4425 21.5329 24.4172 21.5077 24.3667 21.4824C24.3162 21.4572 24.291 21.4319 24.2405 21.4066C24.2152 21.4066 24.19 21.3561 24.1647 21.3309C23.9627 21.1541 23.7607 20.9268 23.5839 20.6743L23.5334 20.5985L19.6949 14.6893L17.1443 10.7498C16.4877 9.71444 16.513 8.45178 17.1191 7.46691C17.2453 7.26489 17.3969 7.08811 17.5484 6.91134C17.6999 6.75982 17.8514 6.63356 18.0534 6.50729C18.1797 6.43153 18.306 6.35577 18.4322 6.30527C18.4827 6.30527 18.5332 6.25476 18.5838 6.25476C18.912 6.12849 19.2403 6.05273 19.5686 6.05273C19.5686 6.05273 19.5939 6.05273 19.6191 6.05273C19.6191 6.05273 19.6444 6.05273 19.6696 6.05273C19.6696 6.05273 19.6949 6.05273 19.7201 6.05273C19.7201 6.05273 19.7454 6.05273 19.7707 6.05273C19.7707 6.05273 19.7959 6.05273 19.8212 6.05273C19.8212 6.05273 19.8464 6.05273 19.8717 6.05273C20.2 6.05273 20.5282 6.12849 20.8313 6.25476C20.8313 6.25476 20.8313 6.25476 20.8565 6.25476C20.8565 6.25476 20.8565 6.25476 20.8818 6.25476C20.8818 6.25476 20.907 6.25476 20.9323 6.25476C20.9323 6.25476 20.9576 6.25476 20.9828 6.25476C21.3111 6.40628 21.6141 6.6083 21.8667 6.88609C21.8667 6.88609 21.8667 6.88609 21.8919 6.91134C22.0182 7.06286 22.1444 7.21438 22.2707 7.3659V7.41641L26.1597 13.3761L28.7103 17.3156C29.3669 18.3005 29.3416 19.5379 28.786 20.4975L28.8365 20.5228Z" fill="white"/>
<path d="M58.6438 10.0337H61.1838L56.8038 20.5137H54.5638L52.8038 16.0137L51.0838 20.5137H48.8238L44.4638 10.0337H46.9838L50.1038 17.9537L51.3238 14.5337L49.5038 10.0537H51.7238L52.8038 13.2537L53.9038 10.0537H56.1238L54.3038 14.5337L55.5438 17.9537L58.6438 10.0337ZM66.9096 20.7137C66.0563 20.7137 65.2896 20.5737 64.6096 20.2937C63.9296 20.0003 63.3496 19.6003 62.8696 19.0937C62.4029 18.587 62.0429 18.007 61.7896 17.3537C61.5363 16.7003 61.4096 16.0137 61.4096 15.2937C61.4096 14.5603 61.5363 13.867 61.7896 13.2137C62.0429 12.5603 62.4029 11.9803 62.8696 11.4737C63.3496 10.967 63.9296 10.5737 64.6096 10.2937C65.2896 10.0003 66.0563 9.85367 66.9096 9.85367C67.7629 9.85367 68.5229 10.0003 69.1896 10.2937C69.8696 10.5737 70.4496 10.967 70.9296 11.4737C71.4096 11.9803 71.7696 12.5603 72.0096 13.2137C72.2629 13.867 72.3896 14.5603 72.3896 15.2937C72.3896 16.0137 72.2629 16.7003 72.0096 17.3537C71.7696 18.007 71.4096 18.587 70.9296 19.0937C70.4629 19.6003 69.8896 20.0003 69.2096 20.2937C68.5296 20.5737 67.7629 20.7137 66.9096 20.7137ZM64.1696 15.2937C64.1696 15.907 64.2896 16.4537 64.5296 16.9337C64.7696 17.4003 65.0963 17.767 65.5096 18.0337C65.9229 18.3003 66.3896 18.4337 66.9096 18.4337C67.4163 18.4337 67.8763 18.3003 68.2896 18.0337C68.7029 17.7537 69.0296 17.3803 69.2696 16.9137C69.5229 16.4337 69.6496 15.887 69.6496 15.2737C69.6496 14.6737 69.5229 14.1337 69.2696 13.6537C69.0296 13.1737 68.7029 12.8003 68.2896 12.5337C67.8763 12.267 67.4163 12.1337 66.9096 12.1337C66.3896 12.1337 65.9229 12.2737 65.5096 12.5537C65.0963 12.8203 64.7696 13.1937 64.5296 13.6737C64.2896 14.1403 64.1696 14.6803 64.1696 15.2937ZM83.9385 20.5137H81.2585V14.6337C81.2585 13.7937 81.1118 13.1803 80.8185 12.7937C80.5252 12.407 80.1185 12.2137 79.5985 12.2137C79.2385 12.2137 78.8718 12.307 78.4985 12.4937C78.1385 12.6803 77.8118 12.9403 77.5185 13.2737C77.2252 13.5937 77.0118 13.967 76.8785 14.3937V20.5137H74.1985V10.0337H76.6185V11.9737C76.8852 11.5203 77.2252 11.1403 77.6385 10.8337C78.0518 10.5137 78.5252 10.2737 79.0585 10.1137C79.6052 9.94034 80.1785 9.85367 80.7785 9.85367C81.4318 9.85367 81.9652 9.97367 82.3785 10.2137C82.8052 10.4403 83.1252 10.7537 83.3385 11.1537C83.5652 11.5403 83.7185 11.9803 83.7985 12.4737C83.8918 12.967 83.9385 13.467 83.9385 13.9737V20.5137ZM85.6288 15.2737C85.6288 14.2603 85.8288 13.347 86.2288 12.5337C86.6288 11.707 87.1822 11.0537 87.8888 10.5737C88.5955 10.0937 89.4022 9.85367 90.3088 9.85367C91.0822 9.85367 91.7755 10.047 92.3888 10.4337C93.0155 10.807 93.5022 11.287 93.8488 11.8737V5.91367H96.5288V17.5137C96.5288 17.7937 96.5755 17.9937 96.6688 18.1137C96.7622 18.2337 96.9222 18.307 97.1488 18.3337V20.5137C96.6822 20.607 96.3022 20.6537 96.0088 20.6537C95.5288 20.6537 95.1288 20.5337 94.8088 20.2937C94.5022 20.0537 94.3288 19.7403 94.2888 19.3537L94.2488 18.6937C93.8622 19.347 93.3355 19.847 92.6688 20.1937C92.0155 20.5403 91.3288 20.7137 90.6088 20.7137C89.8888 20.7137 89.2222 20.5737 88.6088 20.2937C88.0088 20.0137 87.4822 19.627 87.0288 19.1337C86.5888 18.6403 86.2422 18.067 85.9888 17.4137C85.7488 16.747 85.6288 16.0337 85.6288 15.2737ZM93.8488 16.6737V14.1737C93.7155 13.787 93.5022 13.4403 93.2088 13.1337C92.9155 12.827 92.5888 12.587 92.2288 12.4137C91.8688 12.227 91.5088 12.1337 91.1488 12.1337C90.7355 12.1337 90.3622 12.2203 90.0288 12.3937C89.6955 12.567 89.4022 12.8003 89.1488 13.0937C88.9088 13.387 88.7222 13.727 88.5888 14.1137C88.4688 14.5003 88.4088 14.907 88.4088 15.3337C88.4088 15.7603 88.4755 16.167 88.6088 16.5537C88.7555 16.927 88.9622 17.2537 89.2288 17.5337C89.4955 17.8137 89.8022 18.0337 90.1488 18.1937C90.5088 18.3537 90.8955 18.4337 91.3088 18.4337C91.5622 18.4337 91.8155 18.3937 92.0688 18.3137C92.3355 18.2203 92.5822 18.1003 92.8088 17.9537C93.0488 17.7937 93.2555 17.607 93.4288 17.3937C93.6155 17.167 93.7555 16.927 93.8488 16.6737ZM105.399 12.3537C104.586 12.3537 103.859 12.5137 103.219 12.8337C102.579 13.1403 102.119 13.587 101.839 14.1737V20.5137H99.1595V10.0337H101.619V12.2737C101.993 11.5537 102.466 10.987 103.039 10.5737C103.613 10.1603 104.219 9.93367 104.859 9.89367C105.006 9.89367 105.119 9.89367 105.199 9.89367C105.279 9.89367 105.346 9.90034 105.399 9.91367V12.3537ZM113.174 20.7137C112.36 20.7137 111.64 20.5337 111.014 20.1737C110.4 19.8003 109.92 19.3003 109.574 18.6737V24.7737H106.894V10.0337H109.234V11.8337C109.634 11.2203 110.14 10.7403 110.754 10.3937C111.367 10.0337 112.067 9.85367 112.854 9.85367C113.56 9.85367 114.207 9.99367 114.794 10.2737C115.394 10.5537 115.914 10.947 116.354 11.4537C116.794 11.947 117.134 12.5203 117.374 13.1737C117.627 13.8137 117.754 14.507 117.754 15.2537C117.754 16.267 117.554 17.187 117.154 18.0137C116.767 18.8403 116.227 19.5003 115.534 19.9937C114.854 20.4737 114.067 20.7137 113.174 20.7137ZM112.274 18.4337C112.687 18.4337 113.06 18.347 113.394 18.1737C113.727 18.0003 114.014 17.767 114.254 17.4737C114.507 17.167 114.694 16.827 114.814 16.4537C114.947 16.067 115.014 15.667 115.014 15.2537C115.014 14.8137 114.94 14.407 114.794 14.0337C114.66 13.6603 114.46 13.3337 114.194 13.0537C113.927 12.7603 113.614 12.5337 113.254 12.3737C112.907 12.2137 112.527 12.1337 112.114 12.1337C111.86 12.1337 111.6 12.1803 111.334 12.2737C111.08 12.3537 110.834 12.4737 110.594 12.6337C110.354 12.7937 110.14 12.9803 109.954 13.1937C109.78 13.407 109.654 13.6403 109.574 13.8937V16.3537C109.734 16.7403 109.947 17.0937 110.214 17.4137C110.494 17.7337 110.814 17.987 111.174 18.1737C111.534 18.347 111.9 18.4337 112.274 18.4337ZM119.55 5.91367H122.23V17.1537C122.23 17.6337 122.31 17.9603 122.47 18.1337C122.63 18.2937 122.85 18.3737 123.13 18.3737C123.343 18.3737 123.563 18.347 123.79 18.2937C124.016 18.2403 124.216 18.1737 124.39 18.0937L124.75 20.1337C124.39 20.307 123.97 20.4403 123.49 20.5337C123.01 20.627 122.576 20.6737 122.19 20.6737C121.35 20.6737 120.696 20.4537 120.23 20.0137C119.776 19.5603 119.55 18.9203 119.55 18.0937V5.91367ZM125.197 17.4137C125.197 16.7337 125.384 16.1403 125.757 15.6337C126.144 15.1137 126.677 14.7137 127.357 14.4337C128.037 14.1537 128.817 14.0137 129.697 14.0137C130.137 14.0137 130.584 14.047 131.037 14.1137C131.491 14.1803 131.884 14.287 132.217 14.4337V13.8737C132.217 13.207 132.017 12.6937 131.617 12.3337C131.231 11.9737 130.651 11.7937 129.877 11.7937C129.304 11.7937 128.757 11.8937 128.237 12.0937C127.717 12.2937 127.171 12.587 126.597 12.9737L125.737 11.2137C126.431 10.7603 127.137 10.4203 127.857 10.1937C128.591 9.967 129.357 9.85367 130.157 9.85367C131.651 9.85367 132.811 10.227 133.637 10.9737C134.477 11.7203 134.897 12.787 134.897 14.1737V17.5137C134.897 17.7937 134.944 17.9937 135.037 18.1137C135.144 18.2337 135.311 18.307 135.537 18.3337V20.5137C135.297 20.5537 135.077 20.587 134.877 20.6137C134.691 20.6403 134.531 20.6537 134.397 20.6537C133.864 20.6537 133.457 20.5337 133.177 20.2937C132.911 20.0537 132.744 19.7603 132.677 19.4137L132.617 18.8737C132.164 19.4603 131.597 19.9137 130.917 20.2337C130.237 20.5537 129.544 20.7137 128.837 20.7137C128.144 20.7137 127.517 20.5737 126.957 20.2937C126.411 20.0003 125.977 19.607 125.657 19.1137C125.351 18.607 125.197 18.0403 125.197 17.4137ZM131.717 17.9537C131.864 17.7937 131.984 17.6337 132.077 17.4737C132.171 17.3137 132.217 17.167 132.217 17.0337V15.9737C131.897 15.8403 131.551 15.7403 131.177 15.6737C130.804 15.5937 130.451 15.5537 130.117 15.5537C129.424 15.5537 128.851 15.707 128.397 16.0137C127.957 16.307 127.737 16.7003 127.737 17.1937C127.737 17.4603 127.811 17.7137 127.957 17.9537C128.104 18.1937 128.317 18.387 128.597 18.5337C128.877 18.6803 129.211 18.7537 129.597 18.7537C129.997 18.7537 130.391 18.6803 130.777 18.5337C131.164 18.3737 131.477 18.1803 131.717 17.9537ZM137.231 22.5537C137.471 22.607 137.691 22.6537 137.891 22.6937C138.104 22.7337 138.284 22.7537 138.431 22.7537C138.684 22.7537 138.891 22.687 139.051 22.5537C139.224 22.4337 139.391 22.207 139.551 21.8737C139.711 21.5537 139.878 21.1003 140.051 20.5137L135.911 10.0337H138.691L141.511 17.7737L143.991 10.0337H146.551L142.151 22.5937C141.991 23.0603 141.744 23.4803 141.411 23.8537C141.091 24.2403 140.684 24.5403 140.191 24.7537C139.711 24.9803 139.171 25.0937 138.571 25.0937C138.358 25.0937 138.144 25.0737 137.931 25.0337C137.718 25.007 137.484 24.9537 137.231 24.8737V22.5537Z" fill="white"/>
</svg>
